<mxfile host="app.diagrams.net" modified="2024-02-19T08:35:40.904Z" agent="Mozilla/5.0 (Windows NT 10.0; Win64; x64) AppleWebKit/537.36 (KHTML, like Gecko) Chrome/121.0.0.0 Safari/537.36 Edg/121.0.0.0" etag="5sAPM6MG-hW6XqkUObq8" version="23.1.4" type="device">
  <diagram name="Pagina-1" id="BVmWbuZmynB-B3Y1zxiG">
    <mxGraphModel dx="1542" dy="875" grid="1" gridSize="10" guides="1" tooltips="1" connect="1" arrows="1" fold="1" page="1" pageScale="1" pageWidth="1169" pageHeight="827" math="0" shadow="0">
      <root>
        <mxCell id="0" />
        <mxCell id="1" parent="0" />
        <mxCell id="gzW0-0ScK9NF6WWJQt-L-2" value="&lt;font style=&quot;font-size: 30px;&quot;&gt;&lt;b&gt;&lt;i&gt;Battery Power = 5V&lt;/i&gt;&lt;/b&gt;&lt;/font&gt;" style="text;html=1;align=center;verticalAlign=middle;whiteSpace=wrap;rounded=0;fillColor=#d5e8d4;strokeColor=#82b366;" parent="1" vertex="1">
          <mxGeometry x="82.5" y="520" width="1000" height="60" as="geometry" />
        </mxCell>
        <mxCell id="gzW0-0ScK9NF6WWJQt-L-3" value="&lt;b&gt;&lt;i&gt;&lt;font style=&quot;font-size: 30px;&quot;&gt;Voeding = 230V -&amp;gt;5V&lt;/font&gt;&lt;/i&gt;&lt;/b&gt;" style="rounded=0;whiteSpace=wrap;html=1;fillColor=#f8cecc;strokeColor=#b85450;" parent="1" vertex="1">
          <mxGeometry x="80" y="720" width="1000" height="60" as="geometry" />
        </mxCell>
        <mxCell id="gzW0-0ScK9NF6WWJQt-L-7" value="&lt;b&gt;&lt;font style=&quot;font-size: 20px;&quot;&gt;Buttons&lt;/font&gt;&lt;/b&gt;" style="rounded=0;whiteSpace=wrap;html=1;fillColor=#FF0000;gradientColor=#FF0000;strokeColor=#b85450;" parent="1" vertex="1">
          <mxGeometry x="332.5" y="360" width="140" height="100" as="geometry" />
        </mxCell>
        <mxCell id="gzW0-0ScK9NF6WWJQt-L-12" value="&lt;font style=&quot;font-size: 20px;&quot;&gt;&lt;b&gt;Speaker&lt;/b&gt;&lt;/font&gt;" style="rounded=0;whiteSpace=wrap;html=1;fillColor=#FF0000;gradientColor=#FF0000;strokeColor=#b85450;" parent="1" vertex="1">
          <mxGeometry x="502.5" y="360" width="140" height="100" as="geometry" />
        </mxCell>
        <mxCell id="gzW0-0ScK9NF6WWJQt-L-13" value="&lt;font style=&quot;font-size: 20px;&quot;&gt;&lt;b&gt;Display&lt;/b&gt;&lt;/font&gt;" style="rounded=0;whiteSpace=wrap;html=1;fillColor=#FF0000;gradientColor=#FF0000;strokeColor=#b85450;" parent="1" vertex="1">
          <mxGeometry x="480" y="90" width="210" height="40" as="geometry" />
        </mxCell>
        <mxCell id="gzW0-0ScK9NF6WWJQt-L-15" value="" style="shape=flexArrow;endArrow=classic;html=1;rounded=0;fillColor=#f8cecc;strokeColor=#b85450;gradientColor=#FF0000;entryX=0.5;entryY=1;entryDx=0;entryDy=0;" parent="1" target="gzW0-0ScK9NF6WWJQt-L-7" edge="1">
          <mxGeometry width="50" height="50" relative="1" as="geometry">
            <mxPoint x="402" y="520" as="sourcePoint" />
            <mxPoint x="402" y="470" as="targetPoint" />
          </mxGeometry>
        </mxCell>
        <mxCell id="gzW0-0ScK9NF6WWJQt-L-16" value="" style="shape=flexArrow;endArrow=classic;html=1;rounded=0;fillColor=#f8cecc;strokeColor=#b85450;gradientColor=#FF0000;entryX=0.5;entryY=1;entryDx=0;entryDy=0;" parent="1" edge="1">
          <mxGeometry width="50" height="50" relative="1" as="geometry">
            <mxPoint x="572" y="520" as="sourcePoint" />
            <mxPoint x="572.5" y="460" as="targetPoint" />
          </mxGeometry>
        </mxCell>
        <mxCell id="gzW0-0ScK9NF6WWJQt-L-17" value="&lt;b&gt;&lt;font style=&quot;font-size: 20px;&quot;&gt;Raspberry&lt;/font&gt; &lt;font style=&quot;font-size: 20px;&quot;&gt;pi&lt;/font&gt;&lt;/b&gt;" style="rounded=0;whiteSpace=wrap;html=1;fillColor=#FF0000;gradientColor=#FF0000;strokeColor=#b85450;" parent="1" vertex="1">
          <mxGeometry x="82.5" y="270" width="1000" height="40" as="geometry" />
        </mxCell>
        <mxCell id="gzW0-0ScK9NF6WWJQt-L-18" value="" style="shape=flexArrow;endArrow=classic;startArrow=classic;html=1;rounded=0;fillColor=#f8cecc;gradientColor=#ff0000;strokeColor=#b85450;" parent="1" edge="1">
          <mxGeometry width="100" height="100" relative="1" as="geometry">
            <mxPoint x="402" y="360" as="sourcePoint" />
            <mxPoint x="402" y="310" as="targetPoint" />
          </mxGeometry>
        </mxCell>
        <mxCell id="gzW0-0ScK9NF6WWJQt-L-19" value="" style="shape=flexArrow;endArrow=classic;startArrow=classic;html=1;rounded=0;fillColor=#f8cecc;gradientColor=#ff0000;strokeColor=#b85450;" parent="1" edge="1">
          <mxGeometry width="100" height="100" relative="1" as="geometry">
            <mxPoint x="572" y="360" as="sourcePoint" />
            <mxPoint x="572" y="310" as="targetPoint" />
          </mxGeometry>
        </mxCell>
        <mxCell id="gzW0-0ScK9NF6WWJQt-L-20" value="" style="shape=flexArrow;endArrow=classic;startArrow=classic;html=1;rounded=0;fillColor=#f8cecc;gradientColor=#ff0000;strokeColor=#b85450;exitX=0;exitY=0.5;exitDx=0;exitDy=0;" parent="1" edge="1" source="gzW0-0ScK9NF6WWJQt-L-3">
          <mxGeometry width="100" height="100" relative="1" as="geometry">
            <mxPoint x="79.99999999999977" y="736" as="sourcePoint" />
            <mxPoint x="80" y="291" as="targetPoint" />
            <Array as="points">
              <mxPoint x="30" y="750" />
              <mxPoint x="30" y="391" />
              <mxPoint x="30" y="291" />
            </Array>
          </mxGeometry>
        </mxCell>
        <mxCell id="gzW0-0ScK9NF6WWJQt-L-21" value="" style="shape=flexArrow;endArrow=classic;startArrow=classic;html=1;rounded=0;fillColor=#f8cecc;gradientColor=#ff0000;strokeColor=#b85450;exitX=1;exitY=0.5;exitDx=0;exitDy=0;" parent="1" source="gzW0-0ScK9NF6WWJQt-L-2" edge="1">
          <mxGeometry width="100" height="100" relative="1" as="geometry">
            <mxPoint x="1072.5" y="460" as="sourcePoint" />
            <mxPoint x="1083" y="291" as="targetPoint" />
            <Array as="points">
              <mxPoint x="1120" y="550" />
              <mxPoint x="1120" y="380" />
              <mxPoint x="1120" y="290" />
            </Array>
          </mxGeometry>
        </mxCell>
        <mxCell id="gzW0-0ScK9NF6WWJQt-L-22" value="&lt;b&gt;&lt;font style=&quot;font-size: 20px;&quot;&gt;Fans&lt;/font&gt;&lt;/b&gt;" style="rounded=0;whiteSpace=wrap;html=1;fillColor=#FF0000;gradientColor=#FF0000;strokeColor=#b85450;" parent="1" vertex="1">
          <mxGeometry x="672.5" y="360" width="140" height="100" as="geometry" />
        </mxCell>
        <mxCell id="gzW0-0ScK9NF6WWJQt-L-24" value="" style="shape=flexArrow;endArrow=classic;html=1;rounded=0;fillColor=#f8cecc;strokeColor=#b85450;gradientColor=#FF0000;entryX=0.5;entryY=1;entryDx=0;entryDy=0;" parent="1" edge="1">
          <mxGeometry width="50" height="50" relative="1" as="geometry">
            <mxPoint x="742" y="520" as="sourcePoint" />
            <mxPoint x="742.5" y="460" as="targetPoint" />
          </mxGeometry>
        </mxCell>
        <mxCell id="gzW0-0ScK9NF6WWJQt-L-25" value="" style="shape=flexArrow;endArrow=classic;startArrow=classic;html=1;rounded=0;fillColor=#f8cecc;gradientColor=#ff0000;strokeColor=#b85450;" parent="1" edge="1">
          <mxGeometry width="100" height="100" relative="1" as="geometry">
            <mxPoint x="742" y="360" as="sourcePoint" />
            <mxPoint x="742" y="310" as="targetPoint" />
          </mxGeometry>
        </mxCell>
        <mxCell id="gzW0-0ScK9NF6WWJQt-L-26" value="&lt;font style=&quot;font-size: 20px;&quot;&gt;&lt;b&gt;User&lt;/b&gt;&lt;/font&gt;" style="rounded=0;whiteSpace=wrap;html=1;fillColor=#FF0000;gradientColor=#FF0000;strokeColor=#b85450;" parent="1" vertex="1">
          <mxGeometry x="482" y="180" width="205" height="40" as="geometry" />
        </mxCell>
        <mxCell id="gzW0-0ScK9NF6WWJQt-L-28" value="" style="shape=flexArrow;endArrow=classic;html=1;rounded=0;fillColor=#f8cecc;strokeColor=#b85450;gradientColor=#FF0000;" parent="1" edge="1">
          <mxGeometry width="50" height="50" relative="1" as="geometry">
            <mxPoint x="579.17" y="270" as="sourcePoint" />
            <mxPoint x="579.17" y="220" as="targetPoint" />
          </mxGeometry>
        </mxCell>
        <mxCell id="fVlKrD4pzmXDEWI3yO4o-2" value="&lt;font style=&quot;font-size: 20px;&quot;&gt;&lt;b&gt;Oplaadsysteem&amp;nbsp;&lt;/b&gt;&lt;/font&gt;" style="rounded=0;whiteSpace=wrap;html=1;fillColor=#FF0000;gradientColor=#FF0000;strokeColor=#b85450;" vertex="1" parent="1">
          <mxGeometry x="477.5" y="630" width="205" height="40" as="geometry" />
        </mxCell>
        <mxCell id="fVlKrD4pzmXDEWI3yO4o-3" value="" style="shape=flexArrow;endArrow=classic;html=1;rounded=0;fillColor=#f8cecc;strokeColor=#b85450;gradientColor=#FF0000;entryX=0.5;entryY=1;entryDx=0;entryDy=0;" edge="1" parent="1">
          <mxGeometry width="50" height="50" relative="1" as="geometry">
            <mxPoint x="580" y="720" as="sourcePoint" />
            <mxPoint x="580.17" y="670" as="targetPoint" />
          </mxGeometry>
        </mxCell>
        <mxCell id="fVlKrD4pzmXDEWI3yO4o-6" value="" style="shape=flexArrow;endArrow=classic;html=1;rounded=0;fillColor=#f8cecc;strokeColor=#b85450;gradientColor=#FF0000;entryX=0.5;entryY=1;entryDx=0;entryDy=0;exitX=0.5;exitY=0;exitDx=0;exitDy=0;" edge="1" parent="1" source="fVlKrD4pzmXDEWI3yO4o-2">
          <mxGeometry width="50" height="50" relative="1" as="geometry">
            <mxPoint x="579.17" y="640" as="sourcePoint" />
            <mxPoint x="579.67" y="580" as="targetPoint" />
          </mxGeometry>
        </mxCell>
        <mxCell id="fVlKrD4pzmXDEWI3yO4o-9" value="" style="shape=flexArrow;endArrow=classic;html=1;rounded=0;fillColor=#f8cecc;strokeColor=#b85450;gradientColor=#FF0000;" edge="1" parent="1">
          <mxGeometry width="50" height="50" relative="1" as="geometry">
            <mxPoint x="581.7299999999999" y="180" as="sourcePoint" />
            <mxPoint x="581.7299999999999" y="130" as="targetPoint" />
          </mxGeometry>
        </mxCell>
      </root>
    </mxGraphModel>
  </diagram>
</mxfile>
